<!-- simple-note-logo.svg -->
<svg xmlns="http://www.w3.org/2000/svg" viewBox="0 0 100 100" width="100" height="100" role="img" aria-label="Simple Note Logo">
  <defs>
    <linearGradient id="lg" x1="0" x2="1" y1="0" y2="1">
      <stop offset="0" stop-color="var(--logo-start,#60A5FA)"/>
      <stop offset="1" stop-color="var(--logo-end,#3B82F6)"/>
    </linearGradient>
  </defs>

  <!-- rounded background -->
  <rect x="4" y="4" width="92" height="92" rx="18" fill="url(#lg)"/>

  <!-- simple note shape -->
  <g transform="translate(20,18)">
    <path d="M0 0 h48 a6 6 0 0 1 6 6 v36 a6 6 0 0 1-6 6 h-48 a6 6 0 0 1-6-6 v-36 a6 6 0 0 1 6-6 z"
          fill="#fff" opacity="0.98"/>
    <!-- folded corner -->
    <path d="M48 0 v12 a6 6 0 0 1-6 6 H36 z" fill="#f3f4f6"/>
    <!-- three text lines -->
    <rect x="6" y="10" width="34" height="4" rx="2" fill="#E6EEF9"/>
    <rect x="6" y="18" width="40" height="4" rx="2" fill="#E6EEF9"/>
    <rect x="6" y="26" width="26" height="4" rx="2" fill="#E6EEF9"/>
  </g>

  <!-- small pin / spark to signal "important" -->
  <circle cx="76" cy="24" r="5" fill="white"/>
  <circle cx="76" cy="24" r="3" fill="var(--accent,#F59E0B)"/>
</svg>
